<svg width="25" height="25" fill="none" xmlns="http://www.w3.org/2000/svg"><path d="M.542 1.987A1.029 1.029 0 011.57.958h.766c1.303 0 2.084.877 2.53 1.691.298.543.513 1.173.682 1.743.045-.003.091-.005.137-.005h17.141a1.714 1.714 0 011.649 2.185l-2.507 8.789a3.771 3.771 0 01-3.627 2.737h-8.157a3.772 3.772 0 01-3.638-2.773l-1.042-3.801-1.728-5.826-.002-.011c-.214-.778-.414-1.506-.713-2.049-.286-.528-.517-.623-.724-.623H1.57A1.029 1.029 0 01.542 1.987zm6.957 9.037l1.03 3.757c.206.743.882 1.26 1.655 1.26h8.157a1.715 1.715 0 001.649-1.244l2.382-8.353H6.144l1.336 4.508.02.072zM12.2 22.215a2.743 2.743 0 11-5.486 0 2.743 2.743 0 015.486 0zm-2.058 0a.686.686 0 10-1.371 0 .686.686 0 001.371 0zm11.658 0a2.743 2.743 0 11-5.485 0 2.743 2.743 0 015.485 0zm-2.057 0a.686.686 0 10-1.372 0 .686.686 0 001.372 0z" fill="#333"/></svg>