<svg width="34" height="34" fill="none" xmlns="http://www.w3.org/2000/svg"><path d="M3.542 6.02a1.063 1.063 0 011.062-1.062h.79c1.347 0 2.154.906 2.614 1.747.308.561.53 1.211.705 1.8a1.83 1.83 0 01.141-.005H26.56a1.77 1.77 0 011.703 2.257l-2.59 9.08a3.896 3.896 0 01-3.746 2.827h-8.426a3.895 3.895 0 01-3.757-2.865l-1.077-3.927-1.785-6.018-.001-.011c-.221-.803-.428-1.556-.737-2.117-.296-.545-.534-.643-.748-.643h-.792a1.063 1.063 0 01-1.062-1.062zm7.187 9.337l1.063 3.88a1.775 1.775 0 001.709 1.302h8.426a1.771 1.771 0 001.703-1.285l2.46-8.629H9.33l1.38 4.657.02.075zm4.854 11.56a2.833 2.833 0 11-5.666 0 2.833 2.833 0 015.666 0zm-2.125 0a.708.708 0 10-1.416 0 .708.708 0 001.416 0zm12.042 0a2.833 2.833 0 11-5.666 0 2.833 2.833 0 015.666 0zm-2.125 0a.708.708 0 10-1.417 0 .708.708 0 001.417 0z" fill="#000" fill-opacity=".54"/></svg>