<svg width="157" height="17" fill="none" xmlns="http://www.w3.org/2000/svg"><path d="M14.058 4.054H9.35V16H5.06V4.054H.33V.6h13.728v3.454zm9.89 12.254c-1.629 0-3.096-.345-4.4-1.034a7.868 7.868 0 01-3.059-2.86c-.733-1.217-1.1-2.589-1.1-4.114s.367-2.897 1.1-4.114a7.868 7.868 0 013.058-2.86c1.305-.69 2.772-1.034 4.4-1.034 1.628 0 3.088.345 4.378 1.034 1.306.69 2.325 1.643 3.058 2.86.748 1.217 1.122 2.589 1.122 4.114s-.374 2.897-1.122 4.114c-.733 1.217-1.752 2.17-3.058 2.86-1.29.69-2.75 1.034-4.378 1.034zm0-3.608c.776 0 1.48-.183 2.111-.55.63-.367 1.13-.88 1.496-1.54.367-.675.55-1.445.55-2.31s-.183-1.628-.55-2.288A3.938 3.938 0 0026.06 4.45a4.125 4.125 0 00-2.112-.55c-.777 0-1.481.183-2.112.55-.63.367-1.13.887-1.496 1.562-.366.66-.55 1.423-.55 2.288 0 .865.183 1.635.55 2.31.367.66.866 1.173 1.496 1.54s1.335.55 2.112.55zM47.53 4.054h-4.708V16h-4.29V4.054h-4.73V.6H47.53v3.454zM63.942.6l-6.38 11.902c-.675 1.276-1.503 2.244-2.486 2.904-.968.66-2.032.99-3.19.99-.85 0-1.76-.19-2.728-.572l1.034-3.212c.601.176 1.114.264 1.54.264.425 0 .8-.095 1.122-.286.337-.19.645-.491.924-.902L47.794.6h4.598l3.586 7.436L59.696.6h4.246zm9.124 15.708c-1.613 0-3.065-.337-4.356-1.012a7.748 7.748 0 01-3.014-2.86c-.733-1.217-1.1-2.596-1.1-4.136s.367-2.919 1.1-4.136a7.59 7.59 0 013.014-2.838C70.001.636 71.453.292 73.066.292c1.408 0 2.677.25 3.806.748a7.323 7.323 0 012.816 2.156l-2.772 2.508C75.92 4.501 74.71 3.9 73.286 3.9c-.836 0-1.584.183-2.244.55a3.893 3.893 0 00-1.518 1.562c-.352.66-.528 1.423-.528 2.288 0 .865.176 1.635.528 2.31a3.93 3.93 0 001.518 1.54c.66.367 1.408.55 2.244.55 1.423 0 2.633-.601 3.63-1.804l2.772 2.508a7.323 7.323 0 01-2.816 2.156c-1.129.499-2.398.748-3.806.748z" fill="red"/><path d="M81.502 8.124h6.424v3.212h-6.424V8.124zm19.588 4.884h-6.512L93.368 16h-4.444L95.722.6h4.29l6.82 15.4H102.3l-1.21-2.992zm-1.276-3.212l-1.98-4.928-1.98 4.928h3.96zm20.443-1.848c.909.293 1.598.748 2.068 1.364.484.616.726 1.379.726 2.288 0 1.364-.536 2.442-1.606 3.234-1.056.777-2.56 1.166-4.51 1.166h-7.898V.6h7.48c1.848 0 3.278.352 4.29 1.056 1.026.69 1.54 1.672 1.54 2.948 0 .748-.184 1.408-.55 1.98-.352.572-.866 1.027-1.54 1.364zm-6.93-1.188h2.772c1.232 0 1.848-.506 1.848-1.518s-.616-1.518-1.848-1.518h-2.772V6.76zm3.432 6.116c1.261 0 1.892-.535 1.892-1.606 0-1.041-.631-1.562-1.892-1.562h-3.432v3.168h3.432zm21.282-8.822h-4.708V16h-4.29V4.054h-4.73V.6h13.728v3.454zm9.801 12.254c-1.628 0-3.095-.345-4.4-1.034a7.866 7.866 0 01-3.058-2.86c-.733-1.217-1.1-2.589-1.1-4.114s.367-2.897 1.1-4.114a7.866 7.866 0 013.058-2.86c1.305-.69 2.772-1.034 4.4-1.034 1.628 0 3.087.345 4.378 1.034 1.305.69 2.325 1.643 3.058 2.86.748 1.217 1.122 2.589 1.122 4.114s-.374 2.897-1.122 4.114c-.733 1.217-1.753 2.17-3.058 2.86-1.291.69-2.75 1.034-4.378 1.034zm0-3.608c.777 0 1.481-.183 2.112-.55a3.976 3.976 0 001.496-1.54c.367-.675.55-1.445.55-2.31s-.183-1.628-.55-2.288a3.937 3.937 0 00-1.496-1.562 4.126 4.126 0 00-2.112-.55c-.777 0-1.481.183-2.112.55a3.937 3.937 0 00-1.496 1.562c-.367.66-.55 1.423-.55 2.288 0 .865.183 1.635.55 2.31.367.66.865 1.173 1.496 1.54s1.335.55 2.112.55z" fill="#2F80ED"/></svg>