<svg width="46" height="28" fill="none" xmlns="http://www.w3.org/2000/svg"><path d="M2.117 0C.948 0 0 .929 0 2.075v23.85C0 27.071.948 28 2.117 28h41.266c1.169 0 2.117-.929 2.117-2.075V2.075C45.5.929 44.552 0 43.383 0H2.117zM14.92 3.37c2.597 0 4.982.886 6.854 2.365a10.947 10.947 0 00-3.33 5.253h.91a10.268 10.268 0 012.787-4.406 10.268 10.268 0 012.789 4.406h.922a10.948 10.948 0 00-3.338-5.222 10.99 10.99 0 016.879-2.396c6.02 0 10.899 4.782 10.899 10.682 0 5.899-4.88 10.68-10.899 10.68a10.99 10.99 0 01-6.973-2.47 10.94 10.94 0 003.506-5.57h-.888a10.25 10.25 0 01-2.897 4.768 10.247 10.247 0 01-2.895-4.768H18.4a10.94 10.94 0 003.468 5.498 11.024 11.024 0 01-6.948 2.44c-6.02 0-10.9-4.76-10.9-10.63 0-5.87 4.88-10.63 10.899-10.63zm13.655 7.509c-1.31 0-2.583 1.122-2.583 3.228 0 1.397.688 2.319 2.042 2.319.382 0 .992-.153.992-.153l.202-1.221s-.556.276-.938.276c-.805 0-1.128-.607-1.128-1.258 0-1.322.692-2.05 1.463-2.05.578 0 1.042.32 1.042.32l.185-1.187s-.687-.274-1.277-.274zm11.01.103l-1.139.003-.244 1.469s-.429-.57-1.098-.57c-1.041 0-1.908 1.211-1.908 2.605 0 .9.461 1.782 1.407 1.782a1.44 1.44 0 001.058-.458l-.05.391h1.107l.867-5.222zm-32.62.015l-.908 5.235h1.094l.69-3.947.103 3.947h.782l1.459-3.947-.647 3.947H10.7l.895-5.235H9.798L8.68 14.21l-.058-3.211H6.964zm11.423.34c-.025.025-.662 3.621-.662 4.06 0 .648.372.937.893.933.375-.003.664-.096.798-.134l.041-.011.141-.937c-.076 0-.19.033-.288.033-.39 0-.433-.204-.409-.354l.315-1.91h.593l.143-1.036h-.559l.114-.644h-1.12zm13.216.527a3.82 3.82 0 00-1.348.247l-.162.961s.483-.196 1.213-.196c.414 0 .718.046.718.384 0 .206-.037.282-.037.282s-.328-.028-.48-.028c-.962 0-1.973.413-1.973 1.656 0 .98.664 1.204 1.075 1.204.785 0 1.124-.511 1.142-.512l-.037.426h.98l.438-3.077c0-1.305-1.135-1.347-1.529-1.347zm-18.378.006c-.766 0-1.353.246-1.353.246l-.162.962s.484-.197 1.217-.197c.416 0 .72.047.72.385 0 .205-.036.281-.036.281s-.33-.028-.481-.028c-.966 0-1.98.413-1.98 1.656 0 .979.665 1.203 1.077 1.203.788 0 1.128-.51 1.146-.512l-.037.426h.984l.44-3.075c0-1.305-1.14-1.347-1.535-1.347zm3.475 0c-.822 0-1.658.325-1.658 1.436 0 1.26 1.392 1.132 1.392 1.662 0 .354-.388.384-.688.384-.518 0-.985-.176-.986-.168l-.15.962c.027.008.316.135 1.249.135.25 0 1.682.062 1.682-1.399 0-1.366-1.326-1.095-1.326-1.644 0-.273.216-.36.61-.36.157 0 .761.05.761.05l.14-.972s-.39-.086-1.026-.086zm5.142 0c-1.143 0-1.99 1.204-1.99 2.565 0 1.57 1.06 1.943 1.964 1.943.834 0 1.202-.182 1.202-.182l.199-1.072s-.635.274-1.207.274c-1.221 0-1.007-.89-1.007-.89h2.31s.15-.72.15-1.014c0-.732-.373-1.624-1.621-1.624zm4.139.046c-.515 0-.897.678-.897.678l.102-.623h-1.07l-.717 4.3h1.181c.335-1.836.396-3.327 1.195-3.054.14-.71.275-.985.428-1.286 0 0-.072-.015-.222-.015zm9.573 0c-.514 0-.897.678-.897.678l.103-.623h-1.07l-.718 4.3h1.18c.335-1.836.398-3.327 1.196-3.054.14-.71.276-.985.428-1.286 0 0-.072-.015-.222-.015zm-13.718.923c.65 0 .53.718.53.777H21.09c0-.075.121-.777.748-.777zm15.446.084c.413 0 .626.273.626.917 0 .584-.3 1.364-.923 1.364-.413 0-.607-.334-.607-.858 0-.857.4-1.423.904-1.423zm-5.678 1.463c.169 0 .204.016.232.024l.012.002c.02.192-.119 1.09-.793 1.09-.347 0-.436-.27-.436-.43 0-.312.166-.686.985-.686zm-18.377.004c.191 0 .212.021.244.027.022.191-.118 1.088-.795 1.088-.348 0-.439-.27-.439-.43 0-.31.167-.685.99-.685z" fill="#9E9E9E"/></svg>