<svg width="24" height="25" fill="none" xmlns="http://www.w3.org/2000/svg"><path d="M18.978 14.888c-.492-.512-1.086-.786-1.715-.786-.624 0-1.222.269-1.735.781l-1.603 1.598c-.132-.071-.263-.137-.39-.203a6.039 6.039 0 01-.502-.269c-1.502-.954-2.867-2.196-4.175-3.804-.634-.802-1.06-1.477-1.37-2.161.416-.38.802-.777 1.177-1.157.142-.142.284-.29.426-.431 1.065-1.065 1.065-2.445 0-3.51L7.706 3.56c-.157-.158-.32-.32-.472-.482a23.61 23.61 0 00-.953-.944c-.492-.487-1.08-.746-1.7-.746-.619 0-1.217.26-1.724.746l-.01.01-1.725 1.74c-.65.65-1.02 1.44-1.101 2.36-.122 1.48.314 2.86.65 3.763.821 2.217 2.049 4.271 3.88 6.473 2.222 2.653 4.895 4.748 7.949 6.224 1.167.553 2.724 1.208 4.464 1.32.107.004.218.01.32.01 1.171 0 2.155-.422 2.927-1.259.005-.01.015-.015.02-.025.264-.32.568-.609.888-.918.218-.208.441-.426.66-.655.501-.522.765-1.13.765-1.755 0-.629-.269-1.232-.781-1.74l-2.785-2.795zm1.816 5.342c-.005 0-.005.005 0 0-.198.213-.4.406-.619.619-.33.314-.665.644-.979 1.014-.512.548-1.116.807-1.907.807-.076 0-.158 0-.234-.005-1.506-.097-2.906-.685-3.957-1.187-2.87-1.39-5.392-3.364-7.487-5.865-1.73-2.084-2.886-4.012-3.652-6.082-.472-1.263-.645-2.247-.568-3.175.05-.594.279-1.086.7-1.507l1.73-1.73c.248-.233.512-.36.77-.36.32 0 .579.193.741.355l.015.015c.31.29.604.589.913.908.158.163.32.325.482.492l1.385 1.385c.538.538.538 1.035 0 1.573-.147.147-.289.294-.436.436-.426.436-.832.842-1.273 1.238-.01.01-.02.015-.026.025-.436.437-.355.863-.263 1.152l.015.046c.36.872.867 1.694 1.638 2.673l.005.005c1.4 1.725 2.877 3.069 4.505 4.099.208.132.421.238.624.34.182.09.355.177.502.268.02.01.04.026.061.036a1.1 1.1 0 00.502.127c.421 0 .685-.264.771-.35l1.735-1.735c.173-.173.447-.38.766-.38.315 0 .573.197.73.37l.01.01 2.796 2.795c.522.517.522 1.05.005 1.588zM12.972 5.717a6.433 6.433 0 013.5 1.816 6.466 6.466 0 011.816 3.5.68.68 0 00.675.569c.04 0 .076-.005.117-.01a.686.686 0 00.563-.792 7.825 7.825 0 00-2.197-4.235 7.825 7.825 0 00-4.235-2.197.688.688 0 00-.792.558c-.066.37.178.73.553.791zm11.018 4.885a12.872 12.872 0 00-3.617-6.975A12.872 12.872 0 0013.398.01a.682.682 0 00-.786.558.688.688 0 00.563.792 11.52 11.52 0 016.234 3.231 11.491 11.491 0 013.232 6.235.68.68 0 00.674.568c.04 0 .076-.005.117-.01a.672.672 0 00.558-.782z" fill="#2F80ED"/></svg>