<svg width="28" height="28" fill="none" xmlns="http://www.w3.org/2000/svg"><path d="M9.141 14.68a11.94 11.94 0 004.346 2.872l2.214-1.8a.387.387 0 01.446 0l4.111 2.705a1.217 1.217 0 01.194 1.907l-1.926 1.944a2.338 2.338 0 01-.987.594 2.301 2.301 0 01-1.145.047 20.47 20.47 0 01-10.072-5.397A20.388 20.388 0 01.878 7.459a2.313 2.313 0 01.05-1.151c.112-.373.318-.71.596-.978l1.997-1.967a1.172 1.172 0 01.961-.357 1.187 1.187 0 01.87.549L8.09 7.699a.383.383 0 010 .45l-1.803 2.213a11.86 11.86 0 002.854 4.317z" fill="#EB5757"/></svg>