<svg width="30" height="30" fill="none" xmlns="http://www.w3.org/2000/svg"><path d="M15 0C7.577 0 1.542 6.035 1.542 13.459c0 7.258 5.781 13.193 12.98 13.447V30l3.561-3.561-3.56-3.561v3.07c-6.674-.259-12.019-5.757-12.019-12.49C2.504 6.568 8.11.964 15 .964c6.892 0 12.497 5.604 12.497 12.496h.962C28.46 6.035 22.424 0 15 0zm.479 25.193l1.24 1.24-1.24 1.24v-2.48z" fill="#2F80ED"/><path d="M7.79 6.248v14.421h14.42V6.248H7.79zm5.769.963h2.882v1.925h-2.882V7.21zm7.689 12.496H8.752V7.21h3.844v2.881h4.807v-2.88h3.845v12.496z" fill="#2F80ED"/><path d="M18.844 14.658l-1.647 1.848.72.638.45-.502v2.102h.962v-2.102l.443.502.72-.638-1.648-1.848zm-3.998 0L13.2 16.506l.72.638.443-.502v2.102h.963v-2.102l.449.502.714-.638-1.642-1.848z" fill="#2F80ED"/></svg>