<svg width="30" height="30" fill="none" xmlns="http://www.w3.org/2000/svg"><g clip-path="url(#clip0_2_847)" fill="#2F80ED"><path d="M7 19.75c-1.654 0-3 1.346-3 3s1.346 3 3 3c1.655 0 3-1.346 3-3s-1.345-3-3-3zm0 5c-1.103 0-2-.897-2-2s.898-2 2-2c1.103 0 2 .897 2 2s-.897 2-2 2zm17-5c-1.655 0-3 1.346-3 3s1.345 3 3 3c1.654 0 3-1.346 3-3s-1.346-3-3-3zm0 5c-1.104 0-2-.897-2-2s.896-2 2-2c1.102 0 2 .897 2 2s-.898 2-2 2z"/><path d="M29.921 16.98l-4.5-7a.5.5 0 00-.42-.23h-5.5a.5.5 0 00-.5.5v12.5a.5.5 0 00.5.5h2v-1H20v-11.5h4.726L29 17.397v4.853h-2.5v1h3a.5.5 0 00.5-.5v-5.5a.499.499 0 00-.079-.27z"/><path d="M22 16.25v-3.5h4v-1h-4.5a.5.5 0 00-.5.5v4.5a.5.5 0 00.5.5H29v-1h-7zm-2.5-10H.5a.5.5 0 00-.5.5v16a.5.5 0 00.5.5h4v-1H1v-15h18v15H9.5v1h10a.5.5 0 00.5-.5v-16a.5.5 0 00-.5-.5z"/><path d="M3.5 20.25h-3v1h3v-1zm15.5 0h-8.5v1H19v-1zm10.5 0h-2v1h2v-1zm-10-12H2v1h17.5v-1zm-12 14h-1v1h1v-1zm17 0h-1v1h1v-1zM9 4.25H2v1h7v-1zm-8 0H0v1h1v-1z"/></g><defs><clipPath id="clip0_2_847"><path fill="#fff" d="M0 0h30v30H0z"/></clipPath></defs></svg>