<svg width="46" height="28" fill="none" xmlns="http://www.w3.org/2000/svg"><path d="M1.802 0C.807 0 0 .798 0 1.783v24.434C0 27.202.807 28 1.802 28h41.44c.995 0 1.802-.798 1.802-1.783V1.783C45.044.798 44.236 0 43.242 0H1.802zm25.1 8.345c1.096 0 1.975.24 2.535.462l-.383 2.384-.253-.127a4.962 4.962 0 00-2.117-.422c-1.107 0-1.619.489-1.619.946-.006.516.598.855 1.587 1.364 1.631.785 2.385 1.737 2.374 2.989-.022 2.283-1.951 3.76-4.924 3.76-1.268-.015-2.49-.28-3.15-.588l.397-2.463.365.176c.928.41 1.53.576 2.662.576.812 0 1.685-.336 1.691-1.074.006-.481-.364-.825-1.465-1.364-1.072-.526-2.494-1.408-2.479-2.989.017-2.138 1.985-3.63 4.78-3.63zm-22.918.35h4.564c.615.022 1.111.218 1.283.878l.984 5.027v.003l.295 1.507 2.772-7.416h2.998l-4.456 10.854-2.996.003-2.384-8.758c1.418.744 2.626 1.604 3.326 2.789a7.854 7.854 0 00-.722-1.215c-.354-.486-1.12-1.113-1.439-1.38-1.114-.929-2.627-1.68-4.26-2.077l.035-.216zm14.088.012h2.932L19.17 19.544h-2.932l1.834-10.837zm16.56 0h2.222l2.325 10.837h-2.666s-.264-1.245-.35-1.625l-3.68-.004c-.111.294-.605 1.629-.605 1.629h-3.016l4.266-9.937c.302-.706.817-.9 1.505-.9zm.219 2.915c-.144.403-.395 1.054-.379 1.025 0 0-.902 2.383-1.138 3.001l2.371-.001-.661-3.1-.193-.925z" fill="#9E9E9E"/></svg>