<svg width="17" height="17" fill="none" xmlns="http://www.w3.org/2000/svg"><path d="M10.171 13.005v-1.738c0-.369-.107-.553-.32-.553-.126 0-.248.059-.366.177v2.479c.118.118.24.177.365.177.214 0 .321-.18.321-.542zm2.037-1.35h.73v-.377c0-.376-.122-.565-.365-.565-.244 0-.365.189-.365.565v.376zM5.888 8.71v.775h-.885v4.682h-.82V9.485H3.32V8.71h2.568zm2.225 1.395v4.062H7.37v-.443c-.288.332-.568.498-.841.498-.244 0-.398-.103-.465-.31-.044-.125-.066-.325-.066-.598v-3.21h.73v2.99c0 .176.004.272.011.287.008.11.063.166.166.166.148 0 .303-.115.465-.343v-3.1h.742zm2.789 1.228v1.616c0 .384-.026.653-.078.808-.088.31-.284.465-.586.465-.259 0-.51-.151-.753-.454v.399h-.742V8.71h.742v1.782c.236-.295.487-.443.753-.443.302 0 .498.155.586.465.052.155.078.428.078.82zm2.778 1.428v.1c0 .214-.008.372-.022.476-.023.162-.078.31-.166.442-.2.295-.495.443-.886.443-.384 0-.682-.14-.896-.42-.155-.2-.233-.517-.233-.952v-1.428c0-.436.074-.753.222-.952.213-.28.509-.42.885-.42s.664.14.863.42c.155.214.233.531.233.952v.841h-1.472v.72c0 .376.125.564.376.564.177 0 .288-.096.332-.288l.005-.077c.004-.045.006-.106.006-.183v-.238h.753zm-4.992-9.12v1.727c0 .376-.118.564-.354.564s-.354-.188-.354-.564V3.64c0-.383.118-.575.354-.575s.354.192.354.575zm5.9 7.892c0-1.306-.07-2.266-.211-2.878a1.514 1.514 0 00-.476-.814 1.494 1.494 0 00-.841-.381c-1.004-.111-2.524-.166-4.56-.166-2.03 0-3.545.055-4.549.166a1.529 1.529 0 00-1.317 1.195c-.147.642-.221 1.601-.221 2.878 0 1.298.074 2.257.221 2.877.074.317.23.587.47.808.24.222.519.35.836.387 1.01.111 2.53.166 4.56.166s3.549-.055 4.56-.166c.317-.036.596-.165.835-.387.24-.221.397-.49.47-.808.149-.62.222-1.579.222-2.877zM6.23 4.327l.996-3.276h-.83L5.833 3.21l-.587-2.16h-.863c.051.17.136.425.254.764l.266.764c.258.76.428 1.343.51 1.748v2.225h.818V4.327zm3.199.897V3.785c0-.428-.078-.749-.233-.963a1.03 1.03 0 00-.863-.42c-.376 0-.664.14-.863.42-.155.214-.233.535-.233.963v1.439c0 .428.078.749.233.963.199.28.487.42.863.42.362 0 .65-.14.863-.42.155-.2.233-.52.233-.963zm2.003 1.328h.742V2.457h-.742v3.132c-.162.229-.317.343-.465.343-.11 0-.17-.059-.177-.177a1.669 1.669 0 01-.011-.288v-3.01h-.742V5.7c0 .273.022.476.067.609.081.199.24.298.476.298.265 0 .55-.166.852-.498v.443zM17 3.188v10.624a3.07 3.07 0 01-.935 2.253 3.07 3.07 0 01-2.253.935H3.188a3.07 3.07 0 01-2.253-.935A3.07 3.07 0 010 13.812V3.188c0-.879.312-1.63.935-2.253A3.07 3.07 0 013.187 0h10.626a3.07 3.07 0 012.252.935A3.07 3.07 0 0117 3.187z" fill="#fff"/></svg>