<svg width="18" height="18" viewBox="0 0 18 18" fill="none" xmlns="http://www.w3.org/2000/svg">
<path d="M9 0.75C10.7902 0.75 12.5071 1.46116 13.773 2.72703C15.0388 3.9929 15.75 5.70979 15.75 7.5C15.75 10.2945 13.62 13.2225 9.45 16.35C9.32018 16.4474 9.16228 16.5 9 16.5C8.83772 16.5 8.67982 16.4474 8.55 16.35C4.38 13.2225 2.25 10.2945 2.25 7.5C2.25 5.70979 2.96116 3.9929 4.22703 2.72703C5.4929 1.46116 7.20979 0.75 9 0.75ZM9 5.25C8.40326 5.25 7.83097 5.48705 7.40901 5.90901C6.98705 6.33097 6.75 6.90326 6.75 7.5C6.75 8.09674 6.98705 8.66903 7.40901 9.09099C7.83097 9.51295 8.40326 9.75 9 9.75C9.59674 9.75 10.169 9.51295 10.591 9.09099C11.0129 8.66903 11.25 8.09674 11.25 7.5C11.25 6.90326 11.0129 6.33097 10.591 5.90901C10.169 5.48705 9.59674 5.25 9 5.25Z" fill="#EB5757"/>
</svg>
