<svg width="18" height="18" viewBox="0 0 18 18" fill="none" xmlns="http://www.w3.org/2000/svg">
<path d="M7.68205 10.3361C8.69284 11.3615 9.91586 12.1532 11.2652 12.6555L13.0907 11.2029C13.1448 11.1656 13.209 11.1457 13.2747 11.1457C13.3404 11.1457 13.4046 11.1656 13.4587 11.2029L16.8482 13.3867C16.9769 13.4641 17.0858 13.5703 17.1664 13.697C17.247 13.8237 17.297 13.9674 17.3125 14.1167C17.328 14.266 17.3085 14.4169 17.2557 14.5575C17.2028 14.698 17.118 14.8243 17.008 14.9265L15.4198 16.4953C15.1923 16.7201 14.9128 16.885 14.6061 16.9754C14.2994 17.0658 13.9751 17.0789 13.6621 17.0134C10.54 16.3686 7.66227 14.8585 5.35783 12.6555C3.10454 10.4307 1.54527 7.59978 0.869175 4.50622C0.802386 4.19809 0.816326 3.87792 0.909644 3.57676C1.00296 3.2756 1.17249 3.00365 1.40181 2.78726L3.04813 1.19905C3.15001 1.09435 3.27425 1.01406 3.41156 0.964192C3.54886 0.914319 3.69567 0.896155 3.84099 0.91106C3.98631 0.925964 4.12637 0.973551 4.25069 1.05026C4.37502 1.12696 4.48037 1.2308 4.55888 1.35399L6.81531 4.69991C6.85423 4.75245 6.87524 4.8161 6.87524 4.88149C6.87524 4.94687 6.85423 5.01053 6.81531 5.06307L5.32878 6.84981C5.84474 8.17217 6.64861 9.36308 7.68205 10.3361V10.3361Z" fill="#EB5757"/>
</svg>
