<svg width="25" height="25" viewBox="0 0 25 25" fill="none" xmlns="http://www.w3.org/2000/svg">
<path d="M0.541748 1.98682C0.541748 1.71403 0.650123 1.45241 0.843031 1.25951C1.03594 1.06662 1.29758 0.958252 1.57039 0.958252H2.3357C3.63865 0.958252 4.42042 1.83459 4.86616 2.64922C5.16378 3.19231 5.37911 3.8218 5.54781 4.39231C5.59344 4.38871 5.63919 4.38688 5.68496 4.38682H22.8263C23.9646 4.38682 24.7876 5.47574 24.4748 6.57151L21.9677 15.361C21.7429 16.1494 21.2674 16.843 20.613 17.337C19.9587 17.8309 19.1612 18.0982 18.3414 18.0984H10.1836C9.35721 18.0984 8.55372 17.8271 7.89658 17.3261C7.23945 16.8251 6.76504 16.1222 6.54628 15.3253L5.50392 11.5237L3.7758 5.69791L3.77443 5.68694C3.56047 4.90934 3.36023 4.18111 3.06124 3.63802C2.77459 3.11002 2.54417 3.0154 2.33707 3.0154H1.57039C1.29758 3.01539 1.03594 2.90703 0.843031 2.71413C0.650123 2.52124 0.541748 2.25962 0.541748 1.98682ZM7.49949 11.0245L8.52951 14.7809C8.73524 15.5242 9.4114 16.0412 10.1836 16.0412H18.3414C18.714 16.0412 19.0765 15.9198 19.374 15.6954C19.6715 15.4709 19.8877 15.1557 19.99 14.7973L22.3723 6.44397H6.14442L7.48029 10.9519L7.49949 11.0245Z" fill="#333333"/>
<path d="M12.1997 22.2155C12.1997 22.943 11.9107 23.6406 11.3963 24.155C10.8819 24.6694 10.1842 24.9584 9.45667 24.9584C8.72917 24.9584 8.03146 24.6694 7.51704 24.155C7.00262 23.6406 6.71362 22.943 6.71362 22.2155C6.71362 21.4881 7.00262 20.7904 7.51704 20.276C8.03146 19.7616 8.72917 19.4727 9.45667 19.4727C10.1842 19.4727 10.8819 19.7616 11.3963 20.276C11.9107 20.7904 12.1997 21.4881 12.1997 22.2155ZM10.1424 22.2155C10.1424 22.0337 10.0702 21.8592 9.94158 21.7306C9.81297 21.602 9.63855 21.5298 9.45667 21.5298C9.2748 21.5298 9.10037 21.602 8.97176 21.7306C8.84316 21.8592 8.77091 22.0337 8.77091 22.2155C8.77091 22.3974 8.84316 22.5718 8.97176 22.7004C9.10037 22.829 9.2748 22.9012 9.45667 22.9012C9.63855 22.9012 9.81297 22.829 9.94158 22.7004C10.0702 22.5718 10.1424 22.3974 10.1424 22.2155Z" fill="#333333"/>
<path d="M21.8003 22.2155C21.8003 22.943 21.5113 23.6406 20.9969 24.155C20.4825 24.6694 19.7848 24.9584 19.0573 24.9584C18.3298 24.9584 17.6321 24.6694 17.1176 24.155C16.6032 23.6406 16.3142 22.943 16.3142 22.2155C16.3142 21.4881 16.6032 20.7904 17.1176 20.276C17.6321 19.7616 18.3298 19.4727 19.0573 19.4727C19.7848 19.4727 20.4825 19.7616 20.9969 20.276C21.5113 20.7904 21.8003 21.4881 21.8003 22.2155ZM19.743 22.2155C19.743 22.0337 19.6708 21.8592 19.5422 21.7306C19.4136 21.602 19.2391 21.5298 19.0573 21.5298C18.8754 21.5298 18.701 21.602 18.5724 21.7306C18.4437 21.8592 18.3715 22.0337 18.3715 22.2155C18.3715 22.3974 18.4437 22.5718 18.5724 22.7004C18.701 22.829 18.8754 22.9012 19.0573 22.9012C19.2391 22.9012 19.4136 22.829 19.5422 22.7004C19.6708 22.5718 19.743 22.3974 19.743 22.2155Z" fill="#333333"/>
</svg>
