<svg width="32" height="32" viewBox="0 0 32 32" fill="none" xmlns="http://www.w3.org/2000/svg">
<circle cx="16" cy="16" r="15.5" stroke="#6C757D"/>
<path d="M10.2252 8.81099C10.0366 8.62883 9.78397 8.52803 9.52177 8.53031C9.25957 8.53259 9.00876 8.63776 8.82335 8.82317C8.63794 9.00858 8.53278 9.25939 8.5305 9.52158C8.52822 9.78378 8.62901 10.0364 8.81117 10.225L14.5862 16L8.81017 21.775C8.71466 21.8672 8.63848 21.9776 8.58607 22.0996C8.53366 22.2216 8.50607 22.3528 8.50492 22.4856C8.50377 22.6184 8.52907 22.75 8.57935 22.8729C8.62963 22.9958 8.70388 23.1075 8.79778 23.2014C8.89167 23.2953 9.00332 23.3695 9.12622 23.4198C9.24911 23.4701 9.38079 23.4954 9.51357 23.4942C9.64635 23.4931 9.77757 23.4655 9.89958 23.4131C10.0216 23.3607 10.1319 23.2845 10.2242 23.189L16.0002 17.414L21.7752 23.189C21.9638 23.3711 22.2164 23.4719 22.4786 23.4697C22.7408 23.4674 22.9916 23.3622 23.177 23.1768C23.3624 22.9914 23.4676 22.7406 23.4698 22.4784C23.4721 22.2162 23.3713 21.9636 23.1892 21.775L17.4142 16L23.1892 10.225C23.3713 10.0364 23.4721 9.78378 23.4698 9.52158C23.4676 9.25939 23.3624 9.00858 23.177 8.82317C22.9916 8.63776 22.7408 8.53259 22.4786 8.53031C22.2164 8.52803 21.9638 8.62883 21.7752 8.81099L16.0002 14.586L10.2252 8.80999V8.81099Z" fill="#6C757D"/>
</svg>
