<svg width="34" height="34" viewBox="0 0 34 34" fill="none" xmlns="http://www.w3.org/2000/svg">
<path d="M3.54175 6.02084C3.54175 5.73904 3.65369 5.46879 3.85295 5.26953C4.0522 5.07028 4.32246 4.95834 4.60425 4.95834H5.39475C6.74058 4.95834 7.54808 5.86359 8.0085 6.70509C8.31591 7.26609 8.53833 7.91634 8.71258 8.50567C8.75971 8.50195 8.80697 8.50006 8.85425 8.5H26.5597C27.7356 8.5 28.5856 9.62484 28.2626 10.7568L25.6729 19.8362C25.4407 20.6505 24.9495 21.3671 24.2737 21.8773C23.5978 22.3875 22.7741 22.6636 21.9272 22.6638H13.5009C12.6474 22.6639 11.8174 22.3836 11.1387 21.8661C10.4599 21.3485 9.96987 20.6224 9.74391 19.7993L8.66725 15.8723L6.88225 9.85434L6.88083 9.843C6.65983 9.03975 6.453 8.2875 6.14416 7.7265C5.84808 7.18109 5.61008 7.08334 5.39616 7.08334H4.60425C4.32246 7.08334 4.0522 6.97139 3.85295 6.77214C3.65369 6.57288 3.54175 6.30263 3.54175 6.02084ZM10.7285 15.3567L11.7924 19.2369C12.0049 20.0048 12.7033 20.5388 13.5009 20.5388H21.9272C22.3122 20.5388 22.6866 20.4134 22.9939 20.1816C23.3011 19.9497 23.5245 19.6241 23.6301 19.2539L26.0908 10.625H9.32883L10.7087 15.2816L10.7285 15.3567Z" fill="black" fill-opacity="0.54"/>
<path d="M15.5834 26.9167C15.5834 27.6681 15.2849 28.3888 14.7536 28.9201C14.2222 29.4515 13.5015 29.75 12.7501 29.75C11.9986 29.75 11.278 29.4515 10.7466 28.9201C10.2153 28.3888 9.91675 27.6681 9.91675 26.9167C9.91675 26.1652 10.2153 25.4446 10.7466 24.9132C11.278 24.3818 11.9986 24.0833 12.7501 24.0833C13.5015 24.0833 14.2222 24.3818 14.7536 24.9132C15.2849 25.4446 15.5834 26.1652 15.5834 26.9167ZM13.4584 26.9167C13.4584 26.7288 13.3838 26.5486 13.2509 26.4158C13.1181 26.283 12.9379 26.2083 12.7501 26.2083C12.5622 26.2083 12.3821 26.283 12.2492 26.4158C12.1164 26.5486 12.0417 26.7288 12.0417 26.9167C12.0417 27.1045 12.1164 27.2847 12.2492 27.4175C12.3821 27.5504 12.5622 27.625 12.7501 27.625C12.9379 27.625 13.1181 27.5504 13.2509 27.4175C13.3838 27.2847 13.4584 27.1045 13.4584 26.9167Z" fill="black" fill-opacity="0.54"/>
<path d="M25.5002 26.9167C25.5002 27.6681 25.2017 28.3888 24.6703 28.9201C24.1389 29.4515 23.4183 29.75 22.6668 29.75C21.9154 29.75 21.1947 29.4515 20.6634 28.9201C20.132 28.3888 19.8335 27.6681 19.8335 26.9167C19.8335 26.1652 20.132 25.4446 20.6634 24.9132C21.1947 24.3818 21.9154 24.0833 22.6668 24.0833C23.4183 24.0833 24.1389 24.3818 24.6703 24.9132C25.2017 25.4446 25.5002 26.1652 25.5002 26.9167ZM23.3752 26.9167C23.3752 26.7288 23.3005 26.5486 23.1677 26.4158C23.0349 26.283 22.8547 26.2083 22.6668 26.2083C22.479 26.2083 22.2988 26.283 22.166 26.4158C22.0331 26.5486 21.9585 26.7288 21.9585 26.9167C21.9585 27.1045 22.0331 27.2847 22.166 27.4175C22.2988 27.5504 22.479 27.625 22.6668 27.625C22.8547 27.625 23.0349 27.5504 23.1677 27.4175C23.3005 27.2847 23.3752 27.1045 23.3752 26.9167Z" fill="black" fill-opacity="0.54"/>
</svg>
