<svg width="157" height="17" viewBox="0 0 157 17" fill="none" xmlns="http://www.w3.org/2000/svg">
<path d="M14.058 4.054H9.35V16H5.06V4.054H0.33V0.599999H14.058V4.054ZM23.9472 16.308C22.3192 16.308 20.8525 15.9633 19.5472 15.274C18.2565 14.5847 17.2372 13.6313 16.4892 12.414C15.7558 11.1967 15.3892 9.82533 15.3892 8.3C15.3892 6.77467 15.7558 5.40333 16.4892 4.186C17.2372 2.96867 18.2565 2.01533 19.5472 1.326C20.8525 0.636666 22.3192 0.291999 23.9472 0.291999C25.5752 0.291999 27.0345 0.636666 28.3252 1.326C29.6305 2.01533 30.6498 2.96867 31.3832 4.186C32.1312 5.40333 32.5052 6.77467 32.5052 8.3C32.5052 9.82533 32.1312 11.1967 31.3832 12.414C30.6498 13.6313 29.6305 14.5847 28.3252 15.274C27.0345 15.9633 25.5752 16.308 23.9472 16.308ZM23.9472 12.7C24.7245 12.7 25.4285 12.5167 26.0592 12.15C26.6898 11.7833 27.1885 11.27 27.5552 10.61C27.9218 9.93533 28.1052 9.16533 28.1052 8.3C28.1052 7.43467 27.9218 6.672 27.5552 6.012C27.1885 5.33733 26.6898 4.81667 26.0592 4.45C25.4285 4.08333 24.7245 3.9 23.9472 3.9C23.1698 3.9 22.4658 4.08333 21.8352 4.45C21.2045 4.81667 20.7058 5.33733 20.3392 6.012C19.9725 6.672 19.7892 7.43467 19.7892 8.3C19.7892 9.16533 19.9725 9.93533 20.3392 10.61C20.7058 11.27 21.2045 11.7833 21.8352 12.15C22.4658 12.5167 23.1698 12.7 23.9472 12.7ZM47.5298 4.054H42.8218V16H38.5318V4.054H33.8018V0.599999H47.5298V4.054ZM63.9418 0.599999L57.5618 12.502C56.8871 13.778 56.0585 14.746 55.0758 15.406C54.1078 16.066 53.0445 16.396 51.8858 16.396C51.0351 16.396 50.1258 16.2053 49.1578 15.824L50.1918 12.612C50.7931 12.788 51.3065 12.876 51.7318 12.876C52.1571 12.876 52.5311 12.7807 52.8538 12.59C53.1911 12.3993 53.4991 12.0987 53.7778 11.688L47.7938 0.599999H52.3918L55.9778 8.036L59.6958 0.599999H63.9418ZM73.0663 16.308C71.453 16.308 70.001 15.9707 68.7103 15.296C67.4343 14.6067 66.4296 13.6533 65.6963 12.436C64.963 11.2187 64.5963 9.84 64.5963 8.3C64.5963 6.76 64.963 5.38133 65.6963 4.164C66.4296 2.94667 67.4343 2.00067 68.7103 1.326C70.001 0.636666 71.453 0.291999 73.0663 0.291999C74.4743 0.291999 75.743 0.541333 76.8723 1.04C78.0016 1.53867 78.9403 2.25733 79.6883 3.196L76.9163 5.704C75.919 4.50133 74.709 3.9 73.2863 3.9C72.4503 3.9 71.7023 4.08333 71.0423 4.45C70.397 4.81667 69.891 5.33733 69.5243 6.012C69.1723 6.672 68.9963 7.43467 68.9963 8.3C68.9963 9.16533 69.1723 9.93533 69.5243 10.61C69.891 11.27 70.397 11.7833 71.0423 12.15C71.7023 12.5167 72.4503 12.7 73.2863 12.7C74.709 12.7 75.919 12.0987 76.9163 10.896L79.6883 13.404C78.9403 14.3427 78.0016 15.0613 76.8723 15.56C75.743 16.0587 74.4743 16.308 73.0663 16.308Z" fill="#FF0000"/>
<path d="M81.5021 8.124H87.9261V11.336H81.5021V8.124ZM101.09 13.008H94.5778L93.3678 16H88.9238L95.7218 0.599999H100.012L106.832 16H102.3L101.09 13.008ZM99.8138 9.796L97.8338 4.868L95.8538 9.796H99.8138ZM120.257 7.948C121.166 8.24133 121.855 8.696 122.325 9.312C122.809 9.928 123.051 10.6907 123.051 11.6C123.051 12.964 122.515 14.042 121.445 14.834C120.389 15.6113 118.885 16 116.935 16H109.037V0.599999H116.517C118.365 0.599999 119.795 0.951999 120.807 1.656C121.833 2.34533 122.347 3.328 122.347 4.604C122.347 5.352 122.163 6.012 121.797 6.584C121.445 7.156 120.931 7.61067 120.257 7.948ZM113.327 6.76H116.099C117.331 6.76 117.947 6.254 117.947 5.242C117.947 4.23 117.331 3.724 116.099 3.724H113.327V6.76ZM116.759 12.876C118.02 12.876 118.651 12.3407 118.651 11.27C118.651 10.2287 118.02 9.708 116.759 9.708H113.327V12.876H116.759ZM138.041 4.054H133.333V16H129.043V4.054H124.313V0.599999H138.041V4.054ZM147.842 16.308C146.214 16.308 144.747 15.9633 143.442 15.274C142.151 14.5847 141.132 13.6313 140.384 12.414C139.651 11.1967 139.284 9.82533 139.284 8.3C139.284 6.77467 139.651 5.40333 140.384 4.186C141.132 2.96867 142.151 2.01533 143.442 1.326C144.747 0.636666 146.214 0.291999 147.842 0.291999C149.47 0.291999 150.929 0.636666 152.22 1.326C153.525 2.01533 154.545 2.96867 155.278 4.186C156.026 5.40333 156.4 6.77467 156.4 8.3C156.4 9.82533 156.026 11.1967 155.278 12.414C154.545 13.6313 153.525 14.5847 152.22 15.274C150.929 15.9633 149.47 16.308 147.842 16.308ZM147.842 12.7C148.619 12.7 149.323 12.5167 149.954 12.15C150.585 11.7833 151.083 11.27 151.45 10.61C151.817 9.93533 152 9.16533 152 8.3C152 7.43467 151.817 6.672 151.45 6.012C151.083 5.33733 150.585 4.81667 149.954 4.45C149.323 4.08333 148.619 3.9 147.842 3.9C147.065 3.9 146.361 4.08333 145.73 4.45C145.099 4.81667 144.601 5.33733 144.234 6.012C143.867 6.672 143.684 7.43467 143.684 8.3C143.684 9.16533 143.867 9.93533 144.234 10.61C144.601 11.27 145.099 11.7833 145.73 12.15C146.361 12.5167 147.065 12.7 147.842 12.7Z" fill="#2F80ED"/>
</svg>
