<svg width="46" height="28" viewBox="0 0 46 28" fill="none" xmlns="http://www.w3.org/2000/svg">
<path d="M2.11716 4.49016e-05C0.948264 4.49016e-05 0 0.92877 0 2.07467V25.9254C0 27.0711 0.948401 28 2.11716 28H43.3828C44.5517 28 45.5 27.0713 45.5 25.9254V2.07463C45.5 0.928903 44.5516 0 43.3828 0H2.11711L2.11716 4.49016e-05ZM14.9197 3.37047C17.5169 3.37047 19.9022 4.2559 21.7745 5.73491C20.1992 7.11614 19.0243 8.93083 18.4445 10.9877H19.3531C19.8882 9.29086 20.8602 7.78011 22.1414 6.58204C23.4226 7.78011 24.3946 9.29086 24.9297 10.9877H25.8525C25.2648 8.94166 24.0881 7.1378 22.514 5.76558C24.3899 4.26781 26.7846 3.37043 29.393 3.37043C35.4122 3.37043 40.2916 8.15236 40.2916 14.0516C40.2916 19.9508 35.4122 24.7327 29.393 24.7327C26.7412 24.7327 24.3097 23.8052 22.4201 22.2623C24.1104 20.8213 25.3566 18.8895 25.9265 16.6919H25.0377C24.5317 18.5364 23.5132 20.177 22.1414 21.4598C20.7695 20.177 19.7525 18.5364 19.2464 16.6919H18.4004C18.9736 18.8577 20.2035 20.7625 21.8684 22.1899C19.9822 23.7137 17.5603 24.6296 14.9197 24.6296C8.90047 24.6296 4.02106 19.8707 4.02106 14C4.02106 8.1294 8.90047 3.37047 14.9197 3.37047ZM28.5754 10.879C27.2658 10.879 25.9918 12.0009 25.9918 14.1073C25.9918 15.5041 26.68 16.4258 28.0337 16.4258C28.4164 16.4259 29.0261 16.2725 29.0261 16.2725L29.228 15.052C29.228 15.052 28.6716 15.3278 28.2896 15.3278C27.4849 15.3278 27.1621 14.7214 27.1621 14.0697C27.1621 12.7476 27.8544 12.0201 28.6252 12.0201C29.2031 12.0201 29.6674 12.3406 29.6674 12.3406L29.8522 11.1535C29.8522 11.1535 29.165 10.879 28.5753 10.879H28.5754ZM39.585 10.9821L38.4461 10.9849L38.2015 12.4535C38.2015 12.4535 37.7733 11.8836 37.1038 11.8836C36.0628 11.8836 35.1956 13.0954 35.1956 14.4891C35.1956 15.3887 35.6571 16.2711 36.6033 16.2711C37.2839 16.2711 37.6612 15.8128 37.6612 15.8128L37.6114 16.2042H38.7176L39.585 10.9821ZM6.96431 10.9974L6.05718 16.2321H7.15059L7.84164 12.2849L7.94402 16.2321H8.72603L10.1849 12.2849L9.53793 16.2321H10.6996L11.5954 10.9974H9.79814L8.67912 14.209L8.62083 10.9975H6.96436L6.96431 10.9974ZM18.3877 11.3374C18.363 11.3617 17.7265 14.9581 17.7265 15.3961C17.7265 16.0446 18.0975 16.3343 18.6194 16.3296C18.9935 16.3265 19.2831 16.2344 19.4171 16.1959C19.4311 16.1922 19.4583 16.1847 19.4583 16.1847L19.5991 15.2484C19.5226 15.2484 19.4098 15.2805 19.3105 15.2805C18.9207 15.2805 18.8776 15.0773 18.9024 14.9266L19.2166 13.0164H19.8095L19.9531 11.9811H19.3944L19.5081 11.3374H18.3877ZM31.604 11.8641C30.8408 11.8641 30.2561 12.1107 30.2561 12.1107L30.0939 13.0721C30.0939 13.0721 30.5769 12.8756 31.3068 12.8756C31.7212 12.8756 32.0248 12.9221 32.0248 13.2602C32.0248 13.4655 31.9879 13.5416 31.9879 13.5416C31.9879 13.5416 31.6602 13.5138 31.5087 13.5138C30.5463 13.5138 29.5352 13.9271 29.5352 15.1704C29.5352 16.15 30.199 16.3742 30.6101 16.3742C31.3953 16.3742 31.7339 15.863 31.7519 15.8615L31.7149 16.2879H32.6946L33.1325 13.2114C33.1327 11.906 31.998 11.864 31.604 11.864V11.8641ZM13.2262 11.8697C12.4603 11.8697 11.8726 12.1163 11.8726 12.1163L11.7106 13.0777C11.7106 13.0777 12.1951 12.8812 12.9277 12.8812C13.3436 12.8812 13.6486 12.9278 13.6486 13.2657C13.6486 13.471 13.6116 13.5472 13.6116 13.5472C13.6116 13.5472 13.2829 13.5193 13.131 13.5193C12.1649 13.5193 11.1504 13.932 11.1504 15.1746C11.1504 16.1537 11.8155 16.3784 12.2281 16.3784C13.0162 16.3784 13.3561 15.8672 13.3742 15.8657L13.3372 16.292H14.3211L14.7605 13.217C14.7605 11.9124 13.6217 11.8696 13.2262 11.8696V11.8697ZM16.7013 11.8697C15.8788 11.8697 15.0434 12.195 15.0434 13.3062C15.0434 14.5652 16.4354 14.438 16.4354 14.9683C16.4354 15.3224 16.047 15.3516 15.7473 15.3516C15.2286 15.3516 14.7621 15.1759 14.7605 15.1844L14.6112 16.1457C14.638 16.1539 14.9269 16.2809 15.8596 16.2809C16.11 16.2809 17.5416 16.3432 17.5416 14.882C17.5416 13.5159 16.2165 13.7867 16.2165 13.2379C16.2165 12.9646 16.4316 12.8784 16.8264 12.8784C16.9832 12.8784 17.5872 12.9272 17.5872 12.9272L17.7265 11.956C17.7265 11.9562 17.3368 11.8697 16.7013 11.8697H16.7013ZM21.8428 11.8697C20.6998 11.8699 19.8536 13.0742 19.8536 14.4347C19.8536 16.005 20.9139 16.3784 21.8172 16.3784C22.6511 16.3784 23.0187 16.1959 23.0187 16.1959L23.2178 15.1244C23.2178 15.1244 22.5834 15.3975 22.0106 15.3975C20.79 15.3975 21.0039 14.5072 21.0039 14.5072H23.3144C23.3144 14.5072 23.4638 13.7877 23.4638 13.4942C23.4638 12.7621 23.0909 11.8697 21.8428 11.8697H21.8428ZM25.9819 11.9156C25.467 11.9156 25.0847 12.5942 25.0847 12.5942L25.187 11.9714H24.1178L23.3998 16.2711H24.5814C24.916 14.435 24.9771 12.9441 25.7757 13.217C25.9155 12.5063 26.0511 12.2317 26.2037 11.931C26.2037 11.931 26.132 11.9156 25.9819 11.9156H25.9819ZM35.5553 11.9156C35.0405 11.9156 34.6582 12.5942 34.6582 12.5942L34.7606 11.9714H33.6913L32.9732 16.2711H34.1534C34.4882 14.435 34.5508 12.9441 35.3492 13.217C35.4892 12.5063 35.6247 12.2317 35.7772 11.931C35.7772 11.931 35.7055 11.9156 35.5554 11.9156H35.5553ZM21.8371 12.8394C22.4863 12.8394 22.3675 13.5574 22.3675 13.6155H21.0892C21.0892 13.5414 21.2102 12.8394 21.8372 12.8394H21.8371ZM37.283 12.923C37.6961 12.9229 37.9086 13.1964 37.9086 13.8398C37.9086 14.4236 37.6081 15.2038 36.9858 15.2038C36.5727 15.2038 36.3786 14.8696 36.3786 14.3456C36.3786 13.4887 36.7787 12.923 37.2829 12.923H37.283ZM31.6054 14.386C31.7739 14.3862 31.8088 14.4022 31.8372 14.4097C31.8331 14.409 31.8323 14.4098 31.8486 14.4124C31.8699 14.6039 31.7305 15.502 31.0565 15.502C30.7091 15.502 30.6201 15.2313 30.6201 15.0715C30.6201 14.7599 30.7856 14.386 31.6054 14.386ZM13.2277 14.3902C13.4191 14.3904 13.44 14.4113 13.4723 14.4166C13.4936 14.608 13.3537 15.5048 12.6774 15.5048C12.3286 15.5048 12.2381 15.2353 12.2381 15.0757C12.2381 14.7643 12.4046 14.3902 13.2277 14.3902Z" fill="#9E9E9E"/>
</svg>
