<svg width="24" height="25" viewBox="0 0 24 25" fill="none" xmlns="http://www.w3.org/2000/svg">
<path d="M18.9779 14.8881C18.4858 14.3758 17.8923 14.1018 17.2633 14.1018C16.6393 14.1018 16.0408 14.3707 15.5284 14.883L13.9254 16.481C13.7935 16.4099 13.6616 16.344 13.5348 16.2781C13.3522 16.1867 13.1797 16.1005 13.0326 16.0092C11.531 15.0555 10.1665 13.8127 8.85768 12.2046C8.22358 11.4031 7.79747 10.7284 7.48803 10.0436C7.90399 9.66313 8.28953 9.26745 8.66491 8.88699C8.80695 8.74495 8.94899 8.59784 9.09103 8.4558C10.1563 7.39052 10.1563 6.01072 9.09103 4.94543L7.70616 3.56056C7.5489 3.4033 7.38657 3.24097 7.23439 3.07864C6.93002 2.76413 6.61043 2.43947 6.2807 2.1351C5.78864 1.64812 5.2002 1.3894 4.58132 1.3894C3.96243 1.3894 3.36384 1.64812 2.85657 2.1351C2.85149 2.14018 2.85149 2.14018 2.84642 2.14525L1.12167 3.88522C0.472352 4.53454 0.102038 5.32589 0.0208738 6.24407C-0.100873 7.72532 0.335387 9.10512 0.670191 10.0081C1.49198 12.2249 2.7196 14.2794 4.55088 16.481C6.77276 19.134 9.44612 21.2291 12.4999 22.7053C13.6667 23.2582 15.224 23.9126 16.964 24.0242C17.0705 24.0293 17.1821 24.0344 17.2836 24.0344C18.4554 24.0344 19.4395 23.6133 20.2106 22.7763C20.2157 22.7662 20.2258 22.7611 20.2309 22.7509C20.4947 22.4314 20.799 22.1422 21.1186 21.8328C21.3368 21.6248 21.56 21.4066 21.7781 21.1784C22.2803 20.6559 22.5441 20.0471 22.5441 19.4232C22.5441 18.7942 22.2752 18.1905 21.7629 17.6832L18.9779 14.8881ZM20.794 20.2298C20.7889 20.2298 20.7889 20.2348 20.794 20.2298C20.5961 20.4428 20.3932 20.6356 20.1751 20.8486C19.8454 21.1632 19.5105 21.4929 19.196 21.8632C18.6837 22.4111 18.08 22.6698 17.2887 22.6698C17.2126 22.6698 17.1314 22.6698 17.0553 22.6647C15.5487 22.5683 14.1486 21.9799 13.0985 21.4777C10.2273 20.0877 7.70616 18.1144 5.61109 15.6135C3.88127 13.5286 2.72467 11.6009 1.95868 9.53124C1.48691 8.26811 1.31444 7.28399 1.39053 6.35567C1.44126 5.76215 1.66953 5.27009 2.09057 4.84905L3.8204 3.11923C4.06896 2.88588 4.33275 2.75906 4.59146 2.75906C4.91105 2.75906 5.16976 2.95182 5.33209 3.11415C5.33716 3.11923 5.34223 3.1243 5.34731 3.12937C5.65675 3.41852 5.95097 3.71782 6.26041 4.0374C6.41767 4.19973 6.58 4.36206 6.74232 4.52946L8.1272 5.91434C8.66491 6.45205 8.66491 6.94919 8.1272 7.4869C7.98009 7.63401 7.83805 7.78112 7.69094 7.92316C7.26482 8.35942 6.859 8.76525 6.41767 9.16092C6.40752 9.17107 6.39738 9.17614 6.3923 9.18629C5.95604 9.62255 6.03721 10.0487 6.12852 10.3378C6.13359 10.353 6.13866 10.3682 6.14374 10.3835C6.5039 11.256 7.01118 12.0778 7.78225 13.0568L7.78732 13.0619C9.18741 14.7867 10.6636 16.1309 12.292 17.1607C12.4999 17.2926 12.713 17.3991 12.9159 17.5006C13.0985 17.5919 13.271 17.6781 13.4181 17.7695C13.4384 17.7796 13.4587 17.7948 13.479 17.805C13.6515 17.8912 13.8138 17.9318 13.9812 17.9318C14.4022 17.9318 14.666 17.668 14.7523 17.5818L16.4872 15.8469C16.6596 15.6744 16.9336 15.4664 17.2532 15.4664C17.5677 15.4664 17.8264 15.6642 17.9836 15.8367C17.9887 15.8418 17.9887 15.8418 17.9938 15.8469L20.7889 18.642C21.3114 19.1594 21.3114 19.692 20.794 20.2298Z" fill="#2F80ED"/>
<path d="M12.9721 5.71742C14.3012 5.94062 15.5085 6.56965 16.4724 7.53348C17.4362 8.49731 18.0602 9.70463 18.2884 11.0337C18.3442 11.3685 18.6334 11.6019 18.9631 11.6019C19.0037 11.6019 19.0392 11.5968 19.0798 11.5917C19.4552 11.5308 19.7037 11.1757 19.6429 10.8004C19.3689 9.19228 18.608 7.72624 17.4464 6.56457C16.2847 5.40291 14.8186 4.64199 13.2106 4.36806C12.8352 4.30718 12.4852 4.55575 12.4192 4.92606C12.3533 5.29638 12.5968 5.65654 12.9721 5.71742Z" fill="#2F80ED"/>
<path d="M23.99 10.6024C23.5385 7.95443 22.2906 5.54486 20.3731 3.62734C18.4556 1.70983 16.046 0.461919 13.398 0.0104406C13.0277 -0.0555057 12.6776 0.198134 12.6117 0.568448C12.5508 0.943834 12.7994 1.29386 13.1748 1.3598C15.5387 1.76055 17.6946 2.88164 19.4092 4.59117C21.1239 6.30578 22.2399 8.46171 22.6406 10.8256C22.6964 11.1604 22.9856 11.3938 23.3153 11.3938C23.3559 11.3938 23.3914 11.3887 23.432 11.3836C23.8023 11.3278 24.0559 10.9727 23.99 10.6024Z" fill="#2F80ED"/>
</svg>
