<svg width="28" height="28" viewBox="0 0 28 28" fill="none" xmlns="http://www.w3.org/2000/svg">
<path d="M9.14106 14.6793C10.367 15.9493 11.8504 16.9298 13.4869 17.5519L15.701 15.7528C15.7666 15.7066 15.8444 15.6819 15.9242 15.6819C16.0039 15.6819 16.0817 15.7066 16.1473 15.7528L20.2583 18.4575C20.4144 18.5533 20.5465 18.6848 20.6442 18.8417C20.7419 18.9987 20.8026 19.1766 20.8214 19.3616C20.8402 19.5465 20.8166 19.7334 20.7525 19.9075C20.6884 20.0816 20.5856 20.238 20.4521 20.3645L18.5258 22.3075C18.2499 22.5859 17.9109 22.7902 17.5389 22.9021C17.1669 23.0141 16.7736 23.0303 16.394 22.9492C12.6073 22.1506 9.11706 20.2803 6.32211 17.5519C3.58919 14.7964 1.69802 11.2903 0.878017 7.4589C0.797011 7.07728 0.813918 6.68075 0.9271 6.30776C1.04028 5.93477 1.2459 5.59795 1.52403 5.32996L3.52078 3.36293C3.64434 3.23327 3.79503 3.13383 3.96156 3.07206C4.12809 3.0103 4.30615 2.9878 4.4824 3.00626C4.65865 3.02472 4.82853 3.08366 4.97931 3.17866C5.1301 3.27366 5.25788 3.40226 5.3531 3.55484L8.08983 7.69879C8.13703 7.76386 8.16251 7.84269 8.16251 7.92367C8.16251 8.00465 8.13703 8.08349 8.08983 8.14856L6.28687 10.3615C6.91267 11.9992 7.88764 13.4742 9.14106 14.6793Z" fill="#EB5757"/>
</svg>
