<svg width="30" height="30" viewBox="0 0 30 30" fill="none" xmlns="http://www.w3.org/2000/svg">
<g clip-path="url(#clip0_2_847)">
<path d="M7.00049 19.75C5.34598 19.75 4.00049 21.0955 4.00049 22.75C4.00049 24.4045 5.34598 25.75 7.00049 25.75C8.655 25.75 10.0005 24.4045 10.0005 22.75C10.0005 21.0955 8.65494 19.75 7.00049 19.75ZM7.00049 24.75C5.89746 24.75 5.00051 23.853 5.00051 22.75C5.00051 21.647 5.89752 20.75 7.00049 20.75C8.10346 20.75 9.00047 21.647 9.00047 22.75C9.00047 23.853 8.10346 24.75 7.00049 24.75Z" fill="#2F80ED"/>
<path d="M23.9995 19.75C22.345 19.75 20.9995 21.0955 20.9995 22.75C20.9995 24.4045 22.345 25.75 23.9995 25.75C25.654 25.75 26.9995 24.4045 26.9995 22.75C26.9995 21.0955 25.654 19.75 23.9995 19.75ZM23.9995 24.75C22.8965 24.75 21.9995 23.853 21.9995 22.75C21.9995 21.647 22.8965 20.75 23.9995 20.75C25.1025 20.75 25.9995 21.647 25.9995 22.75C25.9995 23.853 25.1025 24.75 23.9995 24.75Z" fill="#2F80ED"/>
<path d="M29.921 16.9795L25.421 9.97951C25.329 9.83648 25.1705 9.75 25.0004 9.75H19.5005C19.224 9.75 19.0005 9.974 19.0005 10.25V22.75C19.0005 23.0265 19.224 23.2499 19.5005 23.2499H21.5005V22.2499H20.0004V10.75H24.7274L29.0005 17.397V22.25H26.5004V23.25H29.5004C29.7769 23.25 30.0004 23.0265 30.0004 22.75V17.25C30.0005 17.1545 29.973 17.06 29.921 16.9795Z" fill="#2F80ED"/>
<path d="M21.9997 16.25V12.75H25.9997V11.75H21.4997C21.2232 11.75 20.9998 11.974 20.9998 12.25V16.75C20.9998 17.0265 21.2232 17.25 21.4997 17.25H28.9997V16.2499H21.9997V16.25Z" fill="#2F80ED"/>
<path d="M19.5 6.25H0.49998C0.224004 6.25 0 6.474 0 6.74998V22.75C0 23.0265 0.224004 23.25 0.49998 23.25H4.5V22.25H1.00002V7.24996H19V22.25H9.49998V23.25H19.5C19.7765 23.25 20 23.0265 20 22.75V6.74998C20 6.474 19.7765 6.25 19.5 6.25Z" fill="#2F80ED"/>
<path d="M3.49976 20.25H0.499756V21.25H3.49976V20.25Z" fill="#2F80ED"/>
<path d="M18.9998 20.25H10.4998V21.25H18.9998V20.25Z" fill="#2F80ED"/>
<path d="M29.5 20.25H27.5V21.25H29.5V20.25Z" fill="#2F80ED"/>
<path d="M19.5003 8.25H2.00024V9.25002H19.5003V8.25Z" fill="#2F80ED"/>
<path d="M7.50026 22.25H6.50024V23.25H7.50026V22.25Z" fill="#2F80ED"/>
<path d="M24.4998 22.25H23.4998V23.25H24.4998V22.25Z" fill="#2F80ED"/>
<path d="M9.00026 4.25H2.00024V5.25002H9.00026V4.25Z" fill="#2F80ED"/>
<path d="M1.00002 4.25H0V5.25002H1.00002V4.25Z" fill="#2F80ED"/>
</g>
<defs>
<clipPath id="clip0_2_847">
<rect width="30" height="30" fill="white"/>
</clipPath>
</defs>
</svg>
