<svg width="46" height="28" viewBox="0 0 46 28" fill="none" xmlns="http://www.w3.org/2000/svg">
<path d="M1.80174 0C0.806864 0 0 0.798446 0 1.78344V26.2166C0 27.2015 0.807269 28 1.80174 28H43.2417C44.2366 28 45.0435 27.2016 45.0435 26.2166V1.78344C45.0435 0.79849 44.2362 0 43.2417 0H1.80174ZM26.9022 8.34454C27.9985 8.34454 28.8771 8.58423 29.4373 8.80711L29.0544 11.1911L28.8011 11.0643C28.2792 10.8414 27.6088 10.6269 26.684 10.6421C25.577 10.6421 25.0653 11.1309 25.0653 11.5882C25.0589 12.1035 25.6632 12.4433 26.6516 12.9522C28.283 13.7374 29.037 14.6894 29.0263 15.9409C29.0043 18.2244 27.0749 19.7001 24.1025 19.7001C22.8344 19.6862 21.6127 19.4205 20.9522 19.1134L21.3492 16.6501L21.7138 16.8256C22.6425 17.2364 23.2438 17.4025 24.3755 17.4025C25.1883 17.4025 26.0606 17.0656 26.0675 16.3282C26.0728 15.8467 25.7029 15.5034 24.6022 14.9642C23.5296 14.4379 22.1077 13.5563 22.1234 11.9755C22.1402 9.83714 24.1082 8.34454 26.9022 8.34454ZM3.98351 8.69427H8.5484C9.1631 8.71727 9.65939 8.91318 9.83074 9.57346L10.8147 14.6005C10.8148 14.601 10.8145 14.6028 10.8147 14.6033L11.1102 16.1095L13.8818 8.69427H16.88L12.4235 19.5482L9.42814 19.551L7.04367 10.7926C8.46245 11.5366 9.67034 12.3974 10.3699 13.582C10.1895 13.2072 9.95186 12.7841 9.64777 12.367C9.29364 11.8814 8.52885 11.2544 8.20917 10.9876C7.09525 10.0582 5.58246 9.30746 3.94833 8.91024L3.98351 8.69427ZM18.0723 8.7068H21.0044L19.1702 19.544H16.2382L18.0723 8.7068ZM34.6328 8.7068H36.854L39.1794 19.544H36.5134C36.5134 19.544 36.2489 18.299 36.1629 17.9194C35.7438 17.9194 32.8131 17.9152 32.4834 17.9152C32.3718 18.2086 31.8781 19.544 31.8781 19.544H28.8616L33.1281 9.6069C33.4301 8.90075 33.945 8.7068 34.6328 8.7068ZM34.851 11.6216C34.7067 12.0247 34.4555 12.6757 34.4723 12.6471C34.4723 12.6471 33.5698 15.0298 33.3336 15.6483L35.7054 15.6469C35.5911 15.1095 35.0438 12.5469 35.0438 12.5469L34.851 11.6217V11.6216Z" fill="#9E9E9E"/>
</svg>
