<svg width="17" height="17" viewBox="0 0 17 17" fill="none" xmlns="http://www.w3.org/2000/svg">
<path d="M10.1712 13.0046V11.2669C10.1712 10.898 10.0642 10.7135 9.85026 10.7135C9.72483 10.7135 9.60308 10.7726 9.48503 10.8906V13.3698C9.60308 13.4878 9.72483 13.5469 9.85026 13.5469C10.0642 13.5469 10.1712 13.3661 10.1712 13.0046ZM12.2077 11.6543H12.9382V11.278C12.9382 10.9017 12.8164 10.7135 12.5729 10.7135C12.3294 10.7135 12.2077 10.9017 12.2077 11.278V11.6543ZM5.88802 8.71029V9.48503H5.0026V14.1667H4.18359V9.48503H3.32031V8.71029H5.88802ZM8.11263 10.1048V14.1667H7.37109V13.724C7.08333 14.056 6.80295 14.222 6.52995 14.222C6.28646 14.222 6.13151 14.1187 6.0651 13.9121C6.02083 13.7867 5.9987 13.5875 5.9987 13.3145V10.1048H6.72917V13.0931C6.72917 13.2702 6.73286 13.3661 6.74023 13.3809C6.74761 13.4915 6.80295 13.5469 6.90625 13.5469C7.05382 13.5469 7.20877 13.4325 7.37109 13.2038V10.1048H8.11263ZM10.9017 11.3333V12.9492C10.9017 13.3329 10.8759 13.6022 10.8242 13.7572C10.7357 14.0671 10.5401 14.222 10.2376 14.222C9.97938 14.222 9.72852 14.0707 9.48503 13.7682V14.1667H8.74349V8.71029H9.48503V10.4922C9.72114 10.197 9.972 10.0495 10.2376 10.0495C10.5401 10.0495 10.7357 10.2044 10.8242 10.5143C10.8759 10.6693 10.9017 10.9423 10.9017 11.3333ZM13.6797 12.7611V12.8607C13.6797 13.0747 13.6723 13.2333 13.6576 13.3366C13.6354 13.4989 13.5801 13.6465 13.4915 13.7793C13.2923 14.0744 12.9972 14.222 12.6061 14.222C12.2224 14.222 11.9236 14.0818 11.7096 13.8014C11.5547 13.6022 11.4772 13.2849 11.4772 12.8496V11.4219C11.4772 10.9865 11.551 10.6693 11.6986 10.4701C11.9125 10.1897 12.2077 10.0495 12.584 10.0495C12.9603 10.0495 13.248 10.1897 13.4473 10.4701C13.6022 10.684 13.6797 11.0013 13.6797 11.4219V12.263H12.2077V12.9824C12.2077 13.3587 12.3331 13.5469 12.584 13.5469C12.7611 13.5469 12.8717 13.451 12.916 13.2591C12.916 13.2517 12.9179 13.2259 12.9215 13.1816C12.9252 13.1374 12.9271 13.0765 12.9271 12.999V12.7611H13.6797ZM8.68815 3.64128V5.36784C8.68815 5.74414 8.5701 5.93229 8.33398 5.93229C8.09787 5.93229 7.97982 5.74414 7.97982 5.36784V3.64128C7.97982 3.2576 8.09787 3.06576 8.33398 3.06576C8.5701 3.06576 8.68815 3.2576 8.68815 3.64128ZM14.5872 11.5326C14.5872 10.2266 14.5171 9.26736 14.377 8.65495C14.3032 8.33029 14.1445 8.05914 13.901 7.84147C13.6576 7.62381 13.3772 7.49653 13.0599 7.45964C12.0564 7.34896 10.5365 7.29362 8.5 7.29362C6.47092 7.29362 4.95464 7.34896 3.95117 7.45964C3.62652 7.49653 3.34429 7.62381 3.10449 7.84147C2.86469 8.05914 2.7079 8.33029 2.63411 8.65495C2.48655 9.29688 2.41276 10.2561 2.41276 11.5326C2.41276 12.8312 2.48655 13.7904 2.63411 14.4102C2.7079 14.7274 2.86469 14.9967 3.10449 15.2181C3.34429 15.4395 3.62283 15.5686 3.9401 15.6055C4.95095 15.7161 6.47092 15.7715 8.5 15.7715C10.5291 15.7715 12.049 15.7161 13.0599 15.6055C13.3772 15.5686 13.6557 15.4395 13.8955 15.2181C14.1353 14.9967 14.2921 14.7274 14.3659 14.4102C14.5135 13.7904 14.5872 12.8312 14.5872 11.5326ZM6.23112 4.32747L7.22721 1.05143H6.39714L5.83268 3.20964L5.24609 1.05143H4.38281C4.43446 1.22114 4.51931 1.47569 4.63737 1.8151L4.90299 2.57878C5.16124 3.33876 5.33095 3.92166 5.41211 4.32747V6.55208H6.23112V4.32747ZM9.42969 5.22396V3.78516C9.42969 3.3572 9.35221 3.03624 9.19727 2.82227C8.98329 2.54188 8.69553 2.40169 8.33398 2.40169C7.95768 2.40169 7.66992 2.54188 7.4707 2.82227C7.31575 3.03624 7.23828 3.3572 7.23828 3.78516V5.22396C7.23828 5.65191 7.31575 5.97287 7.4707 6.18685C7.66992 6.46723 7.95768 6.60742 8.33398 6.60742C8.69553 6.60742 8.98329 6.46723 9.19727 6.18685C9.35221 5.98763 9.42969 5.66667 9.42969 5.22396ZM11.4329 6.55208H12.1745V2.45703H11.4329V5.58919C11.2706 5.81792 11.1157 5.93229 10.9681 5.93229C10.8574 5.93229 10.7984 5.87326 10.791 5.75521C10.7836 5.74045 10.7799 5.64453 10.7799 5.46745V2.45703H10.0384V5.69987C10.0384 5.97287 10.0605 6.17578 10.1048 6.30859C10.186 6.50781 10.3446 6.60742 10.5807 6.60742C10.8464 6.60742 11.1304 6.44141 11.4329 6.10938V6.55208ZM17 3.1875V13.8125C17 14.6905 16.6883 15.4413 16.0648 16.0648C15.4413 16.6883 14.6905 17 13.8125 17H3.1875C2.30946 17 1.5587 16.6883 0.935221 16.0648C0.31174 15.4413 0 14.6905 0 13.8125V3.1875C0 2.30946 0.31174 1.5587 0.935221 0.935221C1.5587 0.31174 2.30946 0 3.1875 0H13.8125C14.6905 0 15.4413 0.31174 16.0648 0.935221C16.6883 1.5587 17 2.30946 17 3.1875Z" fill="white"/>
</svg>
